<?xml version="1.0" encoding="UTF-8" standalone="no"?><!DOCTYPE svg PUBLIC "-//W3C//DTD SVG 1.1//EN" "http://www.w3.org/Graphics/SVG/1.1/DTD/svg11.dtd"><svg width="100%" height="100%" viewBox="0 0 2000 800" version="1.1" xmlns="http://www.w3.org/2000/svg" xmlns:xlink="http://www.w3.org/1999/xlink" xml:space="preserve" xmlns:serif="http://www.serif.com/" style="fill-rule:evenodd;clip-rule:evenodd;stroke-linejoin:round;stroke-miterlimit:1.41421;"><g><path d="M50,365.691l0,-278.17l190.792,0l0,32.826l-155.874,0l0,85.197l145.974,0l0,32.636l-145.974,0l0,94.684l161.994,0l0,32.827l-196.912,0Z" style="fill:#fff;fill-rule:nonzero;"/><path d="M266.171,365.691l101.335,-278.17l37.619,0l107.995,278.17l-39.778,0l-30.779,-84.248l-110.335,0l-28.979,84.248l-37.078,0Zm76.136,-114.228l89.457,0l-27.539,-77.038c-8.4,-23.402 -14.64,-42.629 -18.719,-57.683c-3.36,17.836 -8.1,35.546 -14.22,53.129l-28.979,81.592Z" style="fill:#fff;fill-rule:nonzero;"/><path d="M580.797,365.691l0,-245.344l-86.936,0l0,-32.826l209.151,0l0,32.826l-87.296,0l0,245.344l-34.919,0Z" style="fill:#fff;fill-rule:nonzero;"/><rect x="581.503" y="434.309" width="34.918" height="278.169" style="fill:#fff;fill-rule:nonzero;"/><path d="M690.314,712.479l0,-278.17l35.818,0l138.594,218.399l0,-218.399l33.479,0l0,278.17l-35.818,0l-138.594,-218.589l0,218.589l-33.479,0Z" style="fill:#fff;fill-rule:nonzero;"/></g><rect x="690.314" y="340.867" width="817.642" height="23.413" style="fill:#fff;"/><rect x="998.937" y="689.066" width="817.642" height="23.413" style="fill:#fff;"/><path d="M1845.98,653.761l70.877,-141.392l-17.125,-8.834l-53.752,150.226Z" style="fill:#fff;"/><path d="M1916.66,448.025c18.289,-0.121 33.227,15.812 33.335,35.559c0.109,19.747 -14.652,35.878 -32.941,36c-18.29,0.121 -33.228,-15.812 -33.336,-35.559c-0.109,-19.747 14.652,-35.878 32.942,-36Z" style="fill:#fff;"/></svg>