<?xml version="1.0" encoding="UTF-8" standalone="no"?><!DOCTYPE svg PUBLIC "-//W3C//DTD SVG 1.1//EN" "http://www.w3.org/Graphics/SVG/1.1/DTD/svg11.dtd"><svg width="100%" height="100%" viewBox="0 0 1280 800" version="1.1" xmlns="http://www.w3.org/2000/svg" xmlns:xlink="http://www.w3.org/1999/xlink" xml:space="preserve" xmlns:serif="http://www.serif.com/" style="fill-rule:evenodd;clip-rule:evenodd;stroke-linejoin:round;stroke-miterlimit:1.41421;"><g><path d="M295.837,592.191l127.622,-332.315l47.376,0l136.009,332.315l-50.097,0l-38.762,-100.646l-138.956,0l-36.496,100.646l-46.696,0Zm95.886,-136.462l112.661,0l-34.682,-92.033c-10.579,-27.957 -18.437,-50.928 -23.575,-68.911c-4.232,21.308 -10.201,42.465 -17.908,63.471l-36.496,97.473Z" style="fill-rule:nonzero;"/><path d="M675.33,592.191l0,-293.099l-155.269,-3.194l-15.285,-36.022l291.539,0l0.088,39.723l-77.096,-0.507l0,293.099l-43.977,0Z" style="fill-rule:nonzero;"/><g><path d="M825.471,677.793l105.599,-513.651l137.606,0.017l-0.318,-39.435l-133.19,-2.587l-43.976,0l-109.697,555.656l43.976,0Z" style="fill-rule:nonzero;"/><path d="M1151.23,144.136l-110.141,-74.066l0.006,148.14l110.135,-74.074Z"/></g><path d="M966.361,592.191l0,-332.315l45.11,0l174.544,260.91l0,-260.91l42.163,0l0,332.315l-45.109,0l-174.545,-261.137l0,261.137l-42.163,0Z" style="fill-rule:nonzero;"/></g><path d="M51.822,592.191l0,-339.608l336.165,7.293l-14.778,36.097l-276.446,-3.313l0,104.013l236.979,2.118l-16.88,39.093l-220.099,-1.366l0,115.597l181.999,-0.101l-16.757,40.177l-210.183,0Z" style="fill-rule:nonzero;"/></svg>