<?xml version="1.0" encoding="UTF-8" standalone="no"?><!DOCTYPE svg PUBLIC "-//W3C//DTD SVG 1.1//EN" "http://www.w3.org/Graphics/SVG/1.1/DTD/svg11.dtd"><svg width="100%" height="100%" viewBox="0 0 500 200" version="1.1" xmlns="http://www.w3.org/2000/svg" xmlns:xlink="http://www.w3.org/1999/xlink" xml:space="preserve" xmlns:serif="http://www.serif.com/" style="fill-rule:evenodd;clip-rule:evenodd;stroke-linejoin:round;stroke-miterlimit:1.41421;"><g><path d="M10.339,91.345l0,-70.176l48.132,0l0,8.282l-39.323,0l0,21.493l36.826,0l0,8.233l-36.826,0l0,23.886l40.867,0l0,8.282l-49.676,0Z" style="fill-rule:nonzero;"/><path d="M64.873,91.345l25.565,-70.176l9.49,0l27.245,70.176l-10.036,0l-7.764,-21.254l-27.835,0l-7.311,21.254l-9.354,0Zm19.208,-28.817l22.567,0l-6.947,-19.435c-2.119,-5.904 -3.693,-10.754 -4.722,-14.552c-0.848,4.5 -2.044,8.968 -3.588,13.403l-7.31,20.584Z" style="fill-rule:nonzero;"/><path d="M144.246,91.345l0,-61.894l-21.932,0l0,-8.282l52.763,0l0,8.282l-22.022,0l0,61.894l-8.809,0Z" style="fill-rule:nonzero;"/><rect x="144.424" y="108.655" width="8.809" height="70.175" style="fill-rule:nonzero;"/><path d="M171.874,178.831l0,-70.176l9.036,0l34.964,55.097l0,-55.097l8.446,0l0,70.176l-9.036,0l-34.964,-55.145l0,55.145l-8.446,0Z" style="fill-rule:nonzero;"/></g><rect x="171.874" y="85.082" width="206.271" height="5.907"/><rect x="249.732" y="172.924" width="206.271" height="5.907"/><path d="M463.42,164.018l17.881,-35.67l-4.32,-2.229l-13.561,37.899Z"/><path d="M481.251,112.116c4.614,-0.031 8.382,3.988 8.41,8.97c0.027,4.982 -3.696,9.051 -8.311,9.082c-4.614,0.031 -8.382,-3.989 -8.409,-8.971c-0.028,-4.981 3.696,-9.051 8.31,-9.081Z"/></svg>