<?xml version="1.0" encoding="UTF-8" standalone="no"?><!DOCTYPE svg PUBLIC "-//W3C//DTD SVG 1.1//EN" "http://www.w3.org/Graphics/SVG/1.1/DTD/svg11.dtd"><svg width="100%" height="100%" viewBox="0 0 1280 800" version="1.1" xmlns="http://www.w3.org/2000/svg" xmlns:xlink="http://www.w3.org/1999/xlink" xml:space="preserve" xmlns:serif="http://www.serif.com/" style="fill-rule:evenodd;clip-rule:evenodd;stroke-linejoin:round;stroke-miterlimit:1.41421;"><g><path d="M300.063,566.158l127.621,-332.316l47.377,0l136.009,332.316l-50.097,0l-38.763,-100.647l-138.955,0l-36.496,100.647l-46.696,0Zm95.886,-136.463l112.661,0l-34.683,-92.032c-10.578,-27.958 -18.436,-50.928 -23.575,-68.912c-4.231,21.308 -10.2,42.465 -17.907,63.471l-36.496,97.473Z" style="fill:#fff;fill-rule:nonzero;"/><path d="M679.556,566.158l0,-293.1l-155.269,-3.194l-15.286,-36.022l324.472,0l0,39.216l-109.941,0l0,293.1l-43.976,0Z" style="fill:#fff;fill-rule:nonzero;"/><path d="M886.063,566.158l0,-428.122l-133.508,0.016l0.317,-39.435l133.191,-2.587l43.976,0l0,470.128l-43.976,0Z" style="fill:#fff;fill-rule:nonzero;"/><path d="M1007.11,566.158l0,-332.316l45.109,0l174.545,260.911l0,-260.911l42.163,0l0,332.316l-45.11,0l-174.545,-261.138l0,261.138l-42.162,0Z" style="fill:#fff;fill-rule:nonzero;"/></g><path d="M670.003,118.029l110.14,-74.066l-0.005,148.14l-110.135,-74.074Z" style="fill:#fff;"/><g><path d="M0.723,415.013c-4.145,-59.249 10.412,-121.277 21.407,-182.775l370.664,1.604l-16.966,35.464l-250.127,9.027c-94.302,9.531 -95.399,98.693 0.46,103.614l149.248,0.52l0.581,32.546l-275.267,0Z" style="fill:#fff;fill-rule:nonzero;"/></g><g><path d="M0.723,384.987c-3.287,58.872 8.338,120.198 17.475,181.171l235.473,0l16.311,-40.161l-144.281,-5.53c-94.302,-9.448 -95.399,-97.826 0.46,-102.704l182.295,-2.75l15.321,-34.421l-319.239,4.395l-3.815,0Z" style="fill:#fff;fill-rule:nonzero;"/></g></svg>